<svg xmlns="http://www.w3.org/2000/svg" width="126.04" height="57.227" viewBox="0 0 126.04 57.227">
    <g data-name="Group 1">
        <path data-name="Path 1" d="M993.044 541.467a12.1 12.1 0 0 1-1.175 2.07c-2.2 2.572-6.266 2.538-8.817.434a3.911 3.911 0 0 1-1.131-2.318c-.476-2.176-.946-4.36-1.265-6.563-.419-2.894-.7-5.809-1.019-8.717-.11-1-.191-2.014-.217-3.023a82.312 82.312 0 0 1-.057-10.139 3.348 3.348 0 0 1 2.513-3.009 11.15 11.15 0 0 1 5.286-.285c.31.042.609.157.917.219a4.26 4.26 0 0 1 3.666 3.889 22.644 22.644 0 0 1 .257 2.6c.1 3.487.1 6.977.244 10.461.095 2.365.35 4.725.545 7.086.068.827.169 1.651.254 2.477z" transform="translate(-867.004 -492.843)" style="fill:#035aa6"/>
        <path data-name="Path 2" d="M1011.695 379.6a8.679 8.679 0 0 1 3.535 1.936 6.725 6.725 0 0 1 1.882 6.9 6.815 6.815 0 0 1-5.561 5.061 5.841 5.841 0 0 1-3.426-.313c.861-.2 1.536-.3 2.168-.513a6.578 6.578 0 0 0 4.682-5.626 6.646 6.646 0 0 0-3.011-6.681c-.367-.259-.74-.511-1.11-.766z" transform="translate(-892.165 -379.599)" style="fill:#035aa6"/>
        <path data-name="Path 3" d="M130.9 469.354c-.357 0-.763-.007-1.169 0a28.4 28.4 0 0 1-7-.413 11.914 11.914 0 0 1-6.3-3.306 5.463 5.463 0 0 1-1.462-5.108 17.152 17.152 0 0 1 2.333-5.686 33.1 33.1 0 0 1 7.534-8.785 3.4 3.4 0 0 1 .981-.585 1.037 1.037 0 0 1 1.46 1.087 7.624 7.624 0 0 1-.387 1.725c-.273.9-.578 1.793-.895 2.68a10.94 10.94 0 0 0-.416 3.827 2.345 2.345 0 0 0 1.713 2.356 13.264 13.264 0 0 0 4.516.829c3.568.057 7.139.028 10.707-.011 2.377-.026 4.754-.125 7.13-.2.488-.016.977-.059 1.462-.117a1.658 1.658 0 0 1 1.769.835 11.309 11.309 0 0 1 1.708 5.006 8.354 8.354 0 0 0 .079.938 2.676 2.676 0 0 1-1.084 2.848c-1.538 1.211-3.042 2.463-4.576 3.678-3.068 2.431-6.149 4.845-9.217 7.276a7.191 7.191 0 0 0-.982.941.463.463 0 0 0 .22.821 3.918 3.918 0 0 0 1.228.224c2.9-.032 5.8-.1 8.707-.144 1.5-.022 3.013-.08 4.512.011a3.018 3.018 0 0 1 1.568.714c2.169 1.757 2.733 4.123 2.4 6.774a9.1 9.1 0 0 1-.415 1.727 4.634 4.634 0 0 1-4.429 3.526c-2.162.12-4.321.308-6.482.446-3.069.2-6.136.423-9.208.55-3.389.141-6.788.356-10.17.223-3.629-.142-6.253-2.179-8.116-5.22-2.024-3.305-1.687-6.6.223-9.788a7.787 7.787 0 0 1 2.219-2.183c3.054-2.157 6.169-4.228 9.255-6.34.35-.24.892-.39.584-1.156z" transform="translate(-114.837 -436.854)" style="fill:#035aa6"/>
        <path data-name="Path 4" d="M740.85 500.977c1.244 2.222 2.435 4.315 3.594 6.425q2.42 4.407 4.8 8.836a5.483 5.483 0 0 1-.424 6.119 11.344 11.344 0 0 1-3.331 3.145 4.171 4.171 0 0 1-4.649-.014 13.444 13.444 0 0 1-3.554-3.52c-1.818-2.3-3.556-4.665-5.33-7-.207-.273-.432-.532-.78-.96-.133.99-.237 1.8-.351 2.611-.275 1.966-.455 3.953-.855 5.894-.633 3.073-.7 2.945-3.5 3.69a17.791 17.791 0 0 1-5.606.616 13.7 13.7 0 0 1-1.963-.286 1.87 1.87 0 0 1-1.538-1.533 43.453 43.453 0 0 1-.849-4.623c-.4-4.2-.8-8.4-1-12.61-.211-4.495-.188-9-.271-13.5a5.043 5.043 0 0 1 3.4-5.121 13.935 13.935 0 0 1 6.034-1.1 3.229 3.229 0 0 1 3.384 2.949c.375 1.948.726 3.9 1.111 5.985.266-.282.451-.472.629-.667 2.426-2.656 4.826-5.337 7.288-7.959a7.815 7.815 0 0 1 3.574-2.3 2.964 2.964 0 0 1 2.151.111 10.732 10.732 0 0 1 3.919 3.086 3.164 3.164 0 0 1 .025 4.317c-.809 1.094-1.691 2.135-2.542 3.2z" transform="translate(-637.3 -472.102)" style="fill:#035aa6"/>
        <path data-name="Path 5" d="M469.024 522.09c-.134 1.919-.261 4.5-.508 7.062-.334 3.481-2.415 5.864-5.174 7.744a18.777 18.777 0 0 1-7.653 2.7 39.507 39.507 0 0 1-8.987.41 15.059 15.059 0 0 1-5.761-1.444 5.981 5.981 0 0 1-3.52-4.415q-.715-3.907-1.314-7.834c-.3-1.929-.535-3.867-.763-5.806-.191-1.627-.336-3.26-.49-4.891-.2-2.117-.475-4.232-.556-6.353a25.6 25.6 0 0 1-.129-5.214 3.3 3.3 0 0 1 2.044-2.709 11.977 11.977 0 0 1 3.31-.912 20.856 20.856 0 0 1 3.964.14 2.49 2.49 0 0 1 2.114 1.8 17.481 17.481 0 0 1 1.034 4.686c.386 3.991.69 7.989 1.1 11.977a27.062 27.062 0 0 0 .775 4 2.871 2.871 0 0 0 2.876 2.306 5.578 5.578 0 0 0 3.338-.667 2.707 2.707 0 0 0 1.544-2.441 154.043 154.043 0 0 0-.169-6.484c-.1-2.054-.313-4.1-.437-6.157a111.249 111.249 0 0 1-.215-5.227 15.451 15.451 0 0 1 .225-2.6 3.091 3.091 0 0 1 1.951-2.425 10.253 10.253 0 0 1 2.287-.721 12.109 12.109 0 0 1 5 .16 2.292 2.292 0 0 1 1.849 1.794c.367 1.667.815 3.324 1.054 5.011.363 2.552.647 5.12.834 7.691.195 2.708.239 5.429.377 8.819z" transform="translate(-392.618 -482.999)" style="fill:#035aa6"/>
    </g>
</svg>
