<svg xmlns="http://www.w3.org/2000/svg" width="46" height="46" viewBox="0 0 46 46">
    <g data-name="Group 152" transform="translate(-1203 -23)">
        <circle data-name="Ellipse 1" cx="23" cy="23" r="23" transform="translate(1203 23)" style="fill:#035aa6"/>
        <path data-name="Path 593" d="M125.143 460.767h-.75a18.219 18.219 0 0 1-4.489-.265 7.645 7.645 0 0 1-4.044-2.121 3.505 3.505 0 0 1-.938-3.277 11.006 11.006 0 0 1 1.5-3.648 21.24 21.24 0 0 1 4.834-5.637 2.184 2.184 0 0 1 .629-.375.665.665 0 0 1 .937.7 4.89 4.89 0 0 1-.248 1.107c-.175.578-.371 1.15-.574 1.719a7.02 7.02 0 0 0-.267 2.456 1.5 1.5 0 0 0 1.1 1.512 8.51 8.51 0 0 0 2.9.532c2.289.036 4.58.018 6.87-.007 1.525-.017 3.05-.08 4.575-.129.313-.01.627-.038.938-.075a1.064 1.064 0 0 1 1.135.536 7.257 7.257 0 0 1 1.1 3.212 5.358 5.358 0 0 0 .05.6 1.717 1.717 0 0 1-.7 1.827c-.986.777-1.952 1.58-2.936 2.36-1.968 1.56-3.945 3.109-5.914 4.668a4.614 4.614 0 0 0-.63.6.3.3 0 0 0 .141.527 2.512 2.512 0 0 0 .788.144c1.862-.021 3.724-.064 5.586-.092.965-.014 1.933-.051 2.895.007a1.936 1.936 0 0 1 1.006.458 4.479 4.479 0 0 1 1.541 4.347 5.84 5.84 0 0 1-.266 1.108 2.973 2.973 0 0 1-2.842 2.262c-1.387.077-2.772.2-4.159.286-1.969.126-3.937.271-5.908.353-2.174.09-4.355.228-6.525.143a6.276 6.276 0 0 1-5.207-3.349 5.682 5.682 0 0 1 .143-6.28 5 5 0 0 1 1.424-1.4c1.96-1.384 3.958-2.713 5.938-4.068.217-.153.565-.249.367-.741z" transform="translate(1097.498 -414.575)" style="fill:#95b5e4"/>
    </g>
</svg>
